<?xml version="1.0" standalone="no"?>
<!DOCTYPE svg PUBLIC "-//W3C//DTD SVG 20010904//EN"
 "http://www.w3.org/TR/2001/REC-SVG-20010904/DTD/svg10.dtd">
<svg version="1.0" xmlns="http://www.w3.org/2000/svg"
 width="512.000000pt" height="512.000000pt" viewBox="0 0 512.000000 512.000000"
 preserveAspectRatio="xMidYMid meet">

<g transform="translate(0.000000,512.000000) scale(0.100000,-0.100000)"
fill="#000000" stroke="none">
<path d="M2335 4850 c-1078 -120 -1902 -919 -2057 -1995 -19 -136 -16 -484 5
-625 159 -1018 928 -1787 1947 -1947 159 -24 499 -24 660 1 751 117 1381 572
1720 1241 111 218 179 427 222 680 29 175 32 513 5 685 -160 1016 -929 1788
-1938 1945 -122 19 -449 28 -564 15z m431 -121 c495 -48 972 -270 1321 -617
594 -588 802 -1448 542 -2235 -50 -153 -166 -389 -257 -527 -440 -662 -1227
-1036 -2018 -959 -557 54 -1082 325 -1442 744 -295 344 -478 771 -521 1219
-68 697 215 1401 744 1854 455 390 1046 578 1631 521z"/>
<path d="M2340 4205 c-541 -74 -1010 -407 -1259 -895 -237 -462 -239 -1026 -6
-1491 158 -313 431 -586 745 -744 460 -231 1021 -231 1481 0 313 158 586 431
744 744 272 542 220 1202 -133 1701 -86 121 -270 306 -392 393 -335 238 -776
347 -1180 292z m495 -130 c118 -21 300 -82 412 -138 295 -149 541 -395 690
-690 56 -113 117 -294 140 -417 26 -144 24 -410 -5 -557 -43 -216 -135 -432
-259 -606 -74 -105 -255 -286 -360 -360 -174 -123 -390 -216 -606 -259 -146
-29 -412 -31 -557 -5 -310 57 -589 205 -816 431 -226 227 -374 506 -431 816
-24 131 -24 409 0 540 57 310 205 589 431 816 245 244 537 391 876 440 119 17
361 12 485 -11z"/>
<path d="M2410 3653 c-167 -27 -393 -114 -423 -164 -14 -23 -1 -66 24 -80 18
-9 36 -4 108 30 119 56 247 90 370 100 111 9 131 19 131 66 0 41 -30 55 -111
54 -41 -1 -85 -4 -99 -6z"/>
<path d="M3037 3502 c-18 -20 -22 -49 -9 -69 4 -7 35 -30 69 -52 87 -56 206
-172 272 -266 48 -67 62 -80 88 -83 35 -4 63 19 63 51 0 64 -208 300 -345 390
-75 50 -112 58 -138 29z"/>
<path d="M1627 3129 c-18 -11 -64 -94 -98 -182 -37 -92 -59 -199 -66 -308 -6
-103 -5 -106 18 -122 61 -43 94 -4 102 125 7 115 37 227 88 337 44 94 47 120
21 144 -21 19 -39 21 -65 6z"/>
<path d="M2450 3094 c-161 -34 -304 -144 -374 -285 -37 -75 -66 -185 -66 -249
0 -128 70 -290 165 -385 140 -141 342 -193 535 -139 268 76 442 357 386 624
-47 223 -211 389 -431 435 -85 18 -130 18 -215 -1z m185 -115 c226 -42 384
-264 346 -485 -32 -184 -173 -322 -359 -355 -79 -14 -161 -1 -248 40 -164 77
-265 270 -234 448 30 174 159 311 330 349 71 16 94 16 165 3z"/>
<path d="M3565 2607 c-14 -11 -20 -35 -26 -118 -9 -118 -43 -246 -94 -357 -40
-86 -43 -112 -15 -137 34 -30 69 -10 107 60 71 131 111 273 120 425 5 92 3
108 -11 123 -21 20 -55 22 -81 4z"/>
<path d="M1633 2090 c-32 -13 -40 -55 -18 -94 68 -120 205 -262 335 -347 82
-54 101 -58 130 -29 40 40 26 62 -83 135 -79 53 -195 171 -252 255 -25 39 -55
74 -65 80 -21 11 -18 11 -47 0z"/>
<path d="M2990 1679 c-102 -52 -234 -88 -359 -98 -83 -6 -107 -12 -118 -26
-19 -27 -16 -59 7 -80 17 -16 32 -17 117 -12 151 9 273 42 417 113 85 42 105
68 85 107 -26 48 -48 47 -149 -4z"/>
</g>
</svg>
