<?xml version="1.0" standalone="no"?>
<!DOCTYPE svg PUBLIC "-//W3C//DTD SVG 20010904//EN"
 "http://www.w3.org/TR/2001/REC-SVG-20010904/DTD/svg10.dtd">
<svg version="1.0" xmlns="http://www.w3.org/2000/svg"
 width="1080.000000pt" height="1080.000000pt" viewBox="0 0 1080.000000 1080.000000"
 preserveAspectRatio="xMidYMid meet">

<g transform="translate(0.000000,1080.000000) scale(0.100000,-0.100000)"
fill="#000000" stroke="none">
<path d="M6675 7300 c-727 -45 -1507 -325 -2047 -734 -62 -47 -166 -125 -230
-174 -162 -124 -345 -231 -683 -402 -486 -245 -750 -422 -990 -666 -259 -262
-389 -545 -356 -771 20 -133 118 -479 158 -557 73 -141 258 -290 454 -366 275
-106 624 -151 1013 -130 213 12 265 18 663 76 414 59 591 71 885 57 491 -24
903 30 1348 177 467 155 844 374 1125 655 150 150 235 264 311 420 110 225
134 429 80 684 -39 185 -55 337 -67 629 -12 299 -25 369 -100 513 -212 407
-818 635 -1564 589z m590 -139 c368 -63 624 -189 781 -384 106 -134 148 -259
148 -442 -1 -335 -190 -695 -568 -1084 -613 -628 -1611 -1173 -2656 -1450
-1119 -297 -2116 -191 -2348 248 -28 52 -55 131 -49 138 2 1 19 -9 38 -23 119
-89 358 -174 586 -209 1027 -157 2652 315 3731 1082 462 329 784 684 916 1013
153 380 38 706 -309 874 -99 48 -183 75 -320 103 -74 15 -138 18 -355 18 -230
-1 -283 -4 -399 -24 -898 -154 -1743 -660 -2170 -1298 -108 -162 -211 -394
-246 -558 -13 -58 -29 4 -33 125 -11 325 140 642 458 960 140 140 263 240 435
353 442 289 1054 507 1595 567 52 5 111 12 130 14 19 2 143 3 275 1 186 -2
267 -8 360 -24z m-240 -262 c552 -48 825 -313 725 -703 -18 -73 -102 -266
-114 -266 -4 0 -43 20 -89 44 -469 254 -1247 329 -2067 201 -210 -33 -525
-103 -703 -156 -38 -11 -71 -18 -73 -16 -3 2 26 31 63 64 464 408 1078 699
1693 802 222 37 384 46 565 30z m-530 -779 c395 -26 718 -100 958 -220 56 -28
106 -55 111 -60 28 -27 -309 -386 -518 -553 -495 -394 -1197 -749 -1909 -967
l-139 -42 -96 33 c-200 66 -362 151 -506 263 -94 73 -156 139 -228 241 l-50
70 7 80 c10 121 33 229 66 314 67 169 184 365 303 506 33 40 46 47 159 84 418
136 903 225 1382 254 118 8 321 6 460 -3z m-2416 -117 c-95 -145 -169 -325
-200 -483 -16 -82 -16 -276 0 -357 39 -201 132 -373 290 -536 145 -149 323
-269 524 -352 53 -22 97 -43 97 -46 0 -8 9 -6 -245 -58 -671 -137 -1268 -130
-1654 19 -307 119 -450 333 -387 580 95 372 550 781 1251 1121 88 43 205 103
260 133 55 30 103 55 107 55 4 1 -15 -34 -43 -76z m4186 -248 c8 -60 26 -167
40 -237 28 -146 31 -225 11 -330 -44 -230 -155 -418 -375 -639 -143 -142 -276
-245 -448 -348 -405 -240 -888 -396 -1398 -452 -132 -15 -451 -17 -627 -6
l-128 9 146 49 c735 249 1417 622 1959 1070 127 105 390 368 479 479 99 124
214 301 271 417 27 56 51 100 52 99 1 -1 9 -51 18 -111z"/>
</g>
</svg>
