<?xml version="1.0" standalone="no"?>
<!DOCTYPE svg PUBLIC "-//W3C//DTD SVG 20010904//EN"
 "http://www.w3.org/TR/2001/REC-SVG-20010904/DTD/svg10.dtd">
<svg version="1.0" xmlns="http://www.w3.org/2000/svg"
 width="1080.000000pt" height="1080.000000pt" viewBox="0 0 1080.000000 1080.000000"
 preserveAspectRatio="xMidYMid meet">

<g transform="translate(0.000000,1080.000000) scale(0.100000,-0.100000)"
fill="#000000" stroke="none">
<path d="M2115 10279 c-175 -27 -377 -124 -503 -242 -73 -69 -442 -531 -465
-583 -14 -30 -33 -49 -75 -74 -31 -18 -91 -59 -132 -89 -78 -59 -317 -285
-351 -333 l-20 -28 28 -51 c52 -97 176 -180 319 -215 45 -12 112 -17 194 -18
134 0 201 12 314 60 33 14 100 41 148 58 47 18 115 53 150 78 69 50 226 208
258 260 32 52 27 113 -15 180 -19 31 -46 63 -60 72 -40 26 -266 98 -325 103
-30 3 -109 0 -175 -5 -66 -6 -123 -7 -127 -4 -18 17 238 359 362 483 109 109
173 147 346 205 152 51 243 56 356 21 167 -52 253 -136 354 -342 127 -261 115
-407 -81 -945 -51 -140 -104 -308 -130 -415 -39 -156 -45 -194 -45 -285 0 -61
6 -130 15 -162 l14 -56 -50 -163 c-28 -90 -66 -196 -84 -236 -45 -98 -120
-172 -221 -220 -67 -32 -87 -37 -172 -41 -80 -3 -118 0 -214 22 -66 15 -184
31 -271 38 -196 15 -244 5 -377 -79 -106 -67 -150 -113 -182 -192 -21 -51 -23
-72 -23 -236 1 -207 8 -236 94 -367 116 -177 247 -248 482 -263 135 -8 205 3
291 45 130 65 211 134 443 381 131 139 262 223 347 222 162 -2 221 -203 162
-548 -25 -147 -100 -344 -166 -437 -24 -34 -58 -36 -228 -12 -147 21 -262 14
-350 -19 -109 -41 -182 -79 -215 -113 -168 -167 -65 -474 159 -474 46 0 69 12
226 115 154 101 264 190 354 285 l68 72 62 -6 c33 -4 135 -11 226 -16 91 -6
211 -15 268 -20 123 -13 177 -5 307 44 49 19 115 42 146 50 80 22 161 81 254
182 168 184 237 290 283 434 25 77 128 498 136 555 3 22 24 77 48 123 40 79
42 85 27 110 -8 15 -28 30 -47 36 -66 19 -88 -28 -146 -324 -52 -260 -131
-536 -178 -620 -61 -109 -216 -288 -298 -345 -22 -15 -75 -40 -118 -55 -42
-15 -106 -40 -142 -56 -56 -24 -82 -28 -187 -32 -212 -8 -583 26 -583 53 0 7
27 81 61 165 72 181 104 301 120 451 22 212 1 334 -76 435 -36 47 -117 84
-184 84 -111 0 -208 -69 -499 -352 -199 -194 -271 -249 -371 -284 -110 -39
-324 -28 -426 22 -78 38 -173 141 -222 240 l-38 78 -3 172 c-5 201 -5 200 94
298 96 95 131 106 337 106 128 0 195 -5 317 -26 215 -36 318 -31 423 18 84 41
196 139 247 219 18 27 45 86 60 132 39 116 101 257 114 257 6 0 58 -12 116
-26 175 -43 284 -17 452 107 122 91 180 165 269 346 45 90 85 166 90 169 13 8
136 -62 189 -108 24 -22 94 -64 155 -94 92 -46 133 -59 253 -84 196 -41 262
-40 386 5 54 19 151 51 217 70 144 42 153 46 169 84 15 38 7 72 -29 125 -16
23 -43 70 -61 106 -39 79 -155 224 -248 311 -109 103 -292 196 -401 206 -66 6
-251 -21 -294 -43 -42 -22 -199 -176 -254 -249 -55 -72 -91 -144 -193 -377
-43 -98 -92 -200 -110 -228 -68 -105 -250 -235 -368 -262 -63 -14 -166 0 -238
31 -106 47 -139 214 -89 451 24 116 115 401 180 565 35 88 70 185 79 215 30
102 56 273 56 373 0 84 -5 113 -31 191 -35 105 -99 227 -164 314 -125 166
-353 255 -570 221z m-472 -928 c120 -31 173 -58 191 -96 18 -38 20 -73 6 -110
-20 -52 -208 -229 -286 -268 -16 -8 -106 -41 -200 -72 -158 -53 -175 -57 -264
-56 -102 0 -228 26 -275 57 l-26 17 39 41 c62 65 112 137 112 162 0 14 -17 37
-45 62 l-45 40 38 34 c112 102 279 182 417 201 91 12 265 6 338 -12z m2457
-391 c40 -8 170 -56 170 -64 0 0 -9 -25 -20 -54 -26 -68 -26 -126 0 -152 26
-26 74 -26 170 -1 70 19 76 19 93 3 67 -60 177 -249 177 -302 0 -25 -9 -30
-162 -85 -161 -58 -164 -59 -273 -59 -124 0 -250 15 -310 37 -93 34 -182 86
-211 124 -16 21 -64 80 -107 131 l-78 93 66 90 c77 103 142 164 210 198 96 48
176 60 275 41z m-1778 -3191 c48 -7 88 -16 88 -21 0 -35 -296 -279 -434 -358
-82 -47 -167 -35 -200 29 -73 140 -24 244 149 320 86 37 95 39 199 40 60 1
149 -4 198 -10z"/>
<path d="M7195 9850 c-11 -4 -31 -20 -45 -35 l-25 -27 -3 -386 -3 -387 -91
-60 c-115 -75 -320 -277 -405 -398 -121 -173 -219 -397 -265 -611 -32 -146
-31 -426 0 -574 28 -126 75 -258 103 -289 52 -54 134 -50 184 8 32 39 33 85 0
184 -83 256 -79 566 11 817 79 218 208 405 384 556 l75 64 6 -124 c6 -130 31
-251 75 -358 l24 -60 -26 -62 c-14 -34 -35 -96 -47 -137 -21 -73 -21 -98 -25
-736 -3 -595 -2 -663 13 -691 43 -80 153 -86 209 -11 21 28 21 39 27 685 3
361 9 667 14 680 8 23 8 23 49 -16 127 -120 289 -206 471 -248 115 -27 330
-25 445 3 168 42 324 124 444 234 l54 49 11 -50 c7 -34 11 -261 11 -666 0
-678 -1 -665 62 -704 61 -37 136 -19 172 40 14 25 16 92 16 653 0 694 -2 724
-65 890 l-34 91 25 60 c45 111 66 214 72 348 l5 127 31 -22 c63 -44 180 -164
242 -247 71 -94 148 -236 188 -348 90 -252 94 -551 11 -817 -32 -104 -32 -145
1 -184 37 -45 91 -58 138 -36 87 41 140 193 167 475 32 341 -60 692 -263 997
-93 140 -293 341 -426 428 l-91 60 -1 383 0 382 -33 36 c-62 68 -168 51 -203
-31 -11 -27 -14 -96 -14 -339 l0 -304 -108 38 c-59 21 -159 49 -222 63 -355
79 -721 57 -1062 -63 l-108 -38 0 304 c0 338 -3 358 -62 394 -34 21 -78 25
-113 10z m1250 -840 c117 -23 274 -72 367 -115 l56 -26 7 -57 c6 -53 -7 -261
-21 -352 l-7 -40 -54 50 c-116 106 -266 187 -431 232 -111 31 -373 31 -484 0
-165 -45 -315 -126 -431 -232 -52 -48 -55 -49 -62 -27 -4 12 -10 112 -12 223
l-5 200 74 33 c108 49 234 88 355 110 154 29 159 29 358 26 136 -2 207 -8 290
-25z m-110 -560 c139 -44 265 -125 351 -226 l46 -54 -33 -41 c-47 -59 -150
-142 -228 -182 -105 -55 -192 -78 -316 -84 -162 -7 -292 25 -432 108 -56 34
-213 180 -213 199 0 19 157 165 213 199 72 42 162 79 241 97 91 20 281 12 371
-16z"/>
<path d="M8059 8256 c-32 -18 -59 -58 -59 -86 0 -29 28 -68 61 -86 61 -31 139
-10 174 48 21 36 14 65 -24 102 -36 35 -110 45 -152 22z"/>
<path d="M5572 4798 c-6 -6 -12 -21 -12 -32 0 -10 74 -139 164 -285 90 -146
166 -271 170 -277 5 -11 49 -1375 43 -1380 -1 -1 -144 -100 -317 -219 -173
-120 -352 -244 -398 -277 l-83 -60 -157 118 c-86 65 -190 144 -231 176 -73 57
-106 69 -129 46 -30 -30 -13 -57 81 -131 260 -206 404 -307 440 -307 10 0 122
73 250 163 128 89 322 223 430 297 137 94 199 142 203 159 4 13 -2 341 -13
730 l-19 706 -180 290 c-150 242 -184 290 -204 293 -14 2 -31 -3 -38 -10z"/>
<path d="M6006 4704 c-9 -8 -16 -25 -16 -37 0 -12 20 -339 44 -726 33 -526 48
-707 58 -716 14 -14 954 -315 982 -315 9 0 161 104 338 231 l323 231 215 44
c218 45 240 54 240 96 0 10 -10 24 -22 32 -21 13 -45 10 -248 -33 l-225 -47
-310 -223 c-170 -123 -316 -226 -322 -228 -10 -4 -877 262 -891 273 -2 1 -23
319 -47 705 -39 635 -45 704 -61 716 -23 17 -39 16 -58 -3z"/>
<path d="M6444 4680 c-185 -98 -312 -171 -317 -183 -2 -6 16 -255 40 -552 37
-446 48 -543 62 -557 9 -9 193 -83 410 -164 320 -120 397 -145 411 -136 10 6
119 89 242 184 122 96 239 186 259 201 31 23 77 36 265 77 126 28 239 55 252
60 16 7 22 18 22 40 0 56 -19 56 -297 -4 l-252 -55 -260 -204 -261 -205 -357
134 c-196 74 -358 135 -359 137 -1 1 -18 207 -38 457 -20 250 -38 474 -41 496
l-6 42 168 92 c92 51 171 98 176 104 12 18 3 48 -19 63 -20 12 -29 10 -100
-27z"/>
<path d="M5516 4595 c-9 -9 -16 -23 -16 -31 0 -8 60 -105 134 -217 l134 -202
6 -445 c3 -245 9 -528 12 -630 l7 -185 -311 -209 -310 -209 -49 35 c-26 19
-111 80 -189 136 -150 108 -187 123 -203 80 -5 -13 -5 -30 0 -40 5 -9 86 -72
181 -141 238 -171 247 -177 266 -170 9 4 172 110 361 236 l343 229 -6 321 c-3
177 -9 482 -12 677 l-6 355 -142 210 c-146 217 -164 235 -200 200z"/>
<path d="M6483 4460 c-124 -29 -147 -109 -148 -510 0 -309 1 -313 75 -393 86
-94 298 -215 440 -252 91 -24 184 -23 242 2 79 35 199 123 294 215 206 200
208 315 10 514 -242 241 -731 468 -913 424z m242 -131 c205 -68 437 -204 577
-337 152 -146 171 -206 95 -308 -72 -97 -225 -227 -332 -281 -42 -22 -58 -25
-120 -21 -129 9 -330 106 -445 216 -56 53 -61 61 -70 117 -13 79 -13 357 0
470 15 124 27 164 53 175 35 16 145 1 242 -31z"/>
<path d="M6661 4104 c-127 -64 -178 -243 -108 -380 30 -60 58 -86 117 -113
162 -73 340 57 340 249 0 198 -183 326 -349 244z m159 -194 c40 -40 11 -110
-45 -110 -54 0 -85 71 -48 112 21 24 68 23 93 -2z"/>
<path d="M5385 4365 c-53 -19 -102 -76 -122 -145 -13 -46 -15 -80 -7 -215 12
-229 10 -321 -9 -392 -9 -35 -55 -149 -102 -254 -124 -279 -176 -456 -161
-552 10 -66 52 -143 91 -167 49 -30 128 -36 200 -15 198 57 348 217 398 425
50 201 72 444 64 695 -13 387 -84 596 -213 626 -54 12 -92 10 -139 -6z m146
-116 c65 -65 99 -226 106 -510 9 -346 -28 -637 -101 -784 -60 -121 -166 -210
-288 -242 -77 -20 -109 -13 -141 28 -62 85 -29 233 134 601 102 228 123 315
115 458 -21 370 -20 397 29 446 33 33 115 34 146 3z"/>
<path d="M5427 3561 c-44 -39 -110 -167 -153 -297 -53 -161 -48 -239 18 -301
90 -84 192 -34 240 119 40 128 26 365 -27 469 -21 40 -41 42 -78 10z m43 -326
c15 -18 6 -61 -16 -69 -18 -7 -49 8 -57 28 -8 19 20 56 42 56 10 0 24 -7 31
-15z"/>
<path d="M6136 3064 c-15 -14 -16 -87 -14 -712 l3 -697 198 -320 c110 -176
204 -323 210 -327 20 -13 36 -9 58 13 13 13 18 27 14 37 -3 9 -91 155 -196
324 l-189 307 0 636 c0 349 1 635 3 635 1 0 232 -105 512 -233 l509 -232 185
-353 c114 -218 191 -354 202 -357 28 -9 59 12 59 40 0 20 -357 713 -380 738
-13 15 -1121 517 -1140 517 -10 0 -26 -7 -34 -16z"/>
<path d="M6272 2774 l-22 -15 0 -530 0 -529 100 -150 c80 -120 105 -150 123
-150 27 0 47 17 47 40 0 8 -41 76 -90 150 l-90 135 0 468 c0 257 3 467 6 467
4 0 180 -79 393 -175 l386 -176 116 -242 c113 -236 116 -242 147 -245 26 -3
34 1 43 22 10 22 -1 51 -107 277 -67 141 -128 257 -139 265 -18 11 -880 404
-887 404 -2 0 -14 -7 -26 -16z"/>
<path d="M5639 2461 c-212 -151 -335 -245 -337 -257 -4 -28 157 -373 180 -385
23 -12 68 12 68 36 0 8 -32 85 -70 171 -39 86 -69 158 -68 159 2 1 122 86 268
189 l265 186 2 -32 c2 -18 12 -222 23 -452 13 -266 24 -424 31 -432 6 -8 24
-14 40 -14 23 0 30 6 35 26 4 15 -3 234 -15 488 -12 253 -21 473 -21 489 0 29
-31 67 -54 67 -7 0 -164 -107 -347 -239z"/>
<path d="M6560 2464 c-28 -12 -82 -69 -102 -109 -92 -178 -67 -526 57 -782 55
-112 133 -201 211 -239 51 -25 61 -26 157 -22 166 9 309 76 359 170 20 37 23
57 23 148 -1 91 -5 117 -33 197 -61 180 -205 427 -300 520 -24 24 -77 59 -118
80 -65 32 -86 37 -157 40 -45 1 -89 0 -97 -3z m204 -117 c70 -32 131 -94 202
-202 129 -198 202 -370 211 -496 7 -91 -10 -134 -66 -173 -84 -59 -255 -93
-332 -67 -100 33 -207 208 -259 422 -26 106 -36 284 -21 364 14 75 54 158 83
173 34 17 120 7 182 -21z"/>
<path d="M6761 2100 c-42 -10 -80 -37 -108 -80 -31 -45 -32 -142 -2 -205 25
-54 106 -129 156 -146 121 -40 230 51 241 200 8 121 -53 206 -169 230 -56 12
-70 12 -118 1z m136 -196 c15 -24 15 -29 2 -53 -11 -20 -22 -26 -49 -26 -27 0
-38 6 -49 26 -13 24 -13 29 2 53 12 18 26 26 47 26 21 0 35 -8 47 -26z"/>
<path d="M5842 2408 c-9 -9 -12 -95 -12 -324 l0 -313 -160 -128 c-87 -70 -162
-136 -165 -145 -8 -21 9 -53 31 -62 9 -4 28 1 42 10 56 37 340 274 346 289 3
9 6 157 6 329 0 266 -2 315 -16 334 -17 24 -53 29 -72 10z"/>
</g>
</svg>
