<?xml version="1.0" standalone="no"?>
<!DOCTYPE svg PUBLIC "-//W3C//DTD SVG 20010904//EN"
 "http://www.w3.org/TR/2001/REC-SVG-20010904/DTD/svg10.dtd">
<svg version="1.0" xmlns="http://www.w3.org/2000/svg"
 width="512.000000pt" height="512.000000pt" viewBox="0 0 512.000000 512.000000"
 preserveAspectRatio="xMidYMid meet">

<g transform="translate(0.000000,512.000000) scale(0.100000,-0.100000)"
fill="#000000" stroke="none">
<path d="M2380 5064 c-19 -2 -78 -9 -130 -15 -416 -47 -854 -225 -1205 -488
-127 -96 -334 -297 -438 -426 -287 -355 -472 -792 -539 -1265 -17 -123 -17
-495 1 -620 61 -446 227 -853 493 -1208 93 -123 295 -332 420 -433 355 -286
748 -459 1213 -536 156 -26 571 -26 734 0 547 87 1022 327 1407 711 209 210
350 407 479 671 125 255 208 537 241 821 22 186 15 507 -15 680 -76 447 -250
834 -530 1182 -96 119 -308 327 -416 409 -349 263 -753 435 -1175 498 -99 15
-465 28 -540 19z m-151 -193 c-65 -66 -92 -114 -114 -198 -8 -31 -18 -60 -22
-63 -5 -4 -45 -16 -90 -28 -158 -41 -387 -139 -529 -226 -34 -21 -44 -23 -53
-12 -6 7 -44 28 -83 47 -67 31 -81 34 -171 34 l-99 0 34 28 c139 117 372 248
601 337 165 65 449 137 547 139 l36 1 -57 -59z m768 39 c280 -54 542 -152 779
-293 94 -56 274 -181 274 -190 0 -1 -31 -1 -70 1 -82 5 -180 -21 -251 -66
l-46 -29 -39 24 c-136 84 -369 184 -527 225 -45 12 -85 24 -90 28 -4 3 -14 32
-22 63 -22 84 -49 132 -114 198 -55 57 -56 59 -29 59 15 0 76 -9 135 -20z
m-295 -52 c73 -34 131 -87 162 -151 37 -74 36 -75 -36 -64 -35 6 -155 10 -268
10 -113 0 -233 -4 -267 -10 -71 -11 -72 -10 -44 53 74 163 285 238 453 162z
m39 -328 c785 -78 1443 -599 1693 -1341 139 -413 139 -845 0 -1258 -318 -944
-1286 -1504 -2265 -1311 -504 100 -973 417 -1262 855 -283 428 -388 969 -286
1476 57 289 205 607 388 837 415 521 1081 806 1732 742z m-1477 -238 c27 -9
51 -22 53 -28 2 -6 -25 -33 -59 -60 -95 -74 -242 -219 -321 -317 -39 -48 -76
-86 -82 -84 -22 7 -45 101 -42 173 12 230 239 389 451 316z m2843 -17 c73 -32
143 -102 176 -173 31 -66 32 -219 1 -275 l-20 -39 -76 94 c-84 103 -229 247
-325 322 -35 27 -63 52 -63 57 0 4 24 17 53 28 73 30 170 24 254 -14z m-3412
-323 c0 -89 3 -103 34 -170 19 -39 40 -77 47 -83 11 -9 9 -19 -12 -53 -87
-142 -185 -371 -226 -529 -12 -45 -24 -85 -28 -90 -3 -4 -32 -14 -63 -22 -84
-22 -132 -49 -198 -114 -57 -55 -59 -56 -59 -29 0 44 38 234 71 349 74 264
209 542 368 757 33 45 62 82 63 82 2 0 3 -44 3 -98z m3834 -37 c138 -199 252
-439 326 -687 30 -100 74 -317 75 -365 l0 -32 -50 53 c-58 61 -122 99 -205
121 -33 8 -62 18 -65 22 -4 5 -16 45 -28 90 -41 156 -140 392 -218 514 -30 48
-30 52 1 97 39 56 65 153 65 241 l1 76 25 -30 c13 -16 46 -61 73 -100z m-4052
-1087 c-13 -81 -13 -455 0 -535 11 -73 10 -74 -64 -37 -63 31 -117 89 -152
163 -22 47 -26 70 -26 141 0 71 4 94 26 141 35 74 89 132 152 163 74 37 75 36
64 -36z m4230 36 c63 -31 117 -89 152 -163 22 -47 26 -70 26 -141 0 -71 -4
-94 -26 -141 -35 -74 -89 -132 -152 -163 -74 -37 -75 -36 -64 37 13 80 13 454
0 535 -11 72 -10 73 64 36z m-4359 -713 c23 -12 67 -28 99 -36 31 -8 60 -18
63 -22 4 -5 16 -45 28 -90 41 -158 141 -391 225 -527 l24 -39 -28 -45 c-46
-73 -64 -137 -64 -235 l0 -89 -28 34 c-117 140 -248 372 -338 602 -63 161
-139 464 -139 554 0 27 2 26 59 -29 32 -32 77 -67 99 -78z m4561 -28 c-52
-277 -152 -544 -297 -788 -50 -84 -176 -265 -184 -265 -2 0 -3 44 -3 98 0 89
-3 103 -33 167 -18 38 -39 77 -47 85 -12 13 -10 22 17 65 83 133 197 405 229
549 14 63 12 62 110 90 67 19 133 62 185 119 36 39 39 40 42 20 2 -13 -7 -76
-19 -140z m-3993 -865 c75 -97 219 -242 323 -326 l94 -77 -44 -20 c-33 -15
-65 -20 -129 -20 -73 0 -93 4 -142 28 -73 36 -139 102 -174 174 -23 46 -28 70
-29 132 0 73 25 171 44 171 5 0 30 -28 57 -62z m3377 1 c40 -114 -2 -270 -94
-354 -93 -84 -231 -115 -338 -78 -30 10 -56 24 -58 29 -2 6 25 33 59 60 95 74
242 219 321 317 39 48 76 86 81 84 6 -2 19 -28 29 -58z m-508 -531 c64 -30 78
-33 168 -33 l99 0 -34 -28 c-141 -119 -431 -279 -638 -352 -166 -59 -434 -124
-515 -125 l-31 0 57 59 c65 66 92 114 114 198 8 31 18 60 22 63 5 4 45 16 90
28 158 41 391 141 528 226 34 21 42 23 55 11 8 -8 47 -29 85 -47z m-2296 28
c122 -78 358 -177 514 -218 45 -12 85 -24 90 -28 4 -3 14 -32 22 -63 22 -84
49 -132 114 -198 l57 -59 -31 0 c-84 1 -363 69 -520 127 -227 84 -489 229
-634 350 l-33 29 76 -4 c87 -5 189 21 247 62 43 31 51 31 98 2z m1071 -289
c113 0 233 4 268 10 72 11 73 10 36 -64 -31 -63 -89 -117 -163 -152 -47 -22
-70 -26 -141 -26 -71 0 -94 4 -141 26 -74 35 -132 89 -163 152 -37 74 -36 75
37 64 34 -6 154 -10 267 -10z"/>
<path d="M1898 4270 c-60 -32 -83 -74 -83 -152 0 -52 5 -73 21 -94 40 -55 70
-69 142 -69 79 0 120 23 152 85 75 147 -86 307 -232 230z m116 -116 c32 -31
11 -84 -32 -84 -35 0 -52 16 -52 50 0 14 5 31 12 38 17 17 54 15 72 -4z"/>
<path d="M3156 4267 c-59 -33 -79 -67 -84 -140 -3 -52 0 -67 20 -96 37 -55 71
-74 135 -78 75 -5 126 23 161 87 79 148 -87 310 -232 227z m118 -113 c32 -31
11 -84 -32 -84 -35 0 -52 16 -52 50 0 14 5 31 12 38 17 17 54 15 72 -4z"/>
<path d="M2456 4250 c-140 -36 -276 -173 -304 -307 l-8 -38 -421 -5 c-408 -5
-422 -6 -450 -26 -63 -46 -73 -76 -73 -205 0 -110 1 -119 22 -133 30 -21 54
-20 78 4 17 17 20 33 20 118 0 63 4 102 12 110 9 9 122 12 445 12 l434 0 23
23 c15 15 25 40 29 74 13 112 97 215 203 248 181 57 369 -62 391 -248 4 -34
14 -59 29 -74 l23 -23 404 0 c322 0 407 -3 415 -13 8 -9 12 -150 14 -440 3
-379 5 -428 19 -443 10 -10 45 -19 92 -24 123 -14 205 -68 258 -170 20 -37 24
-60 24 -130 0 -73 -4 -92 -27 -135 -52 -99 -135 -153 -255 -164 -116 -11 -107
27 -113 -469 l-5 -427 -412 -5 c-407 -5 -413 -5 -434 -27 -15 -15 -25 -41 -31
-84 -16 -116 -88 -209 -195 -249 -181 -68 -374 52 -401 249 -6 43 -16 69 -31
84 -21 22 -26 22 -464 27 l-442 5 -5 428 c-5 426 -5 429 -27 447 -12 9 -41 20
-63 24 -88 14 -175 78 -218 160 -23 44 -27 63 -27 136 0 73 4 92 27 136 43 82
130 146 218 160 80 13 85 22 88 189 4 166 -5 195 -57 195 -52 0 -61 -23 -61
-153 0 -108 -2 -117 -19 -117 -10 0 -50 -16 -88 -35 -87 -43 -153 -112 -196
-203 -30 -62 -32 -75 -32 -172 0 -97 2 -110 32 -172 43 -91 109 -160 196 -203
38 -19 78 -35 88 -35 18 0 19 -16 19 -398 0 -443 0 -442 70 -489 33 -23 34
-23 451 -23 l417 0 7 -41 c11 -67 70 -172 125 -223 28 -26 81 -62 118 -79 62
-30 75 -32 172 -32 97 0 110 2 172 32 122 57 212 168 239 291 l11 52 387 0
386 0 36 24 c69 47 69 48 69 484 l0 390 51 7 c74 10 178 66 233 125 26 28 62
81 79 118 30 62 32 75 32 172 0 97 -2 110 -32 172 -17 37 -53 90 -79 118 -55
59 -159 115 -233 125 l-51 7 0 402 c0 401 0 403 -22 436 -13 18 -36 43 -51 54
-27 20 -42 21 -420 26 l-391 5 -8 39 c-13 61 -66 152 -120 202 -76 71 -161
106 -266 110 -48 2 -104 -1 -126 -6z"/>
<path d="M2451 3959 c-82 -42 -121 -127 -121 -264 l0 -65 -379 0 c-376 0 -378
0 -411 -22 -18 -13 -43 -36 -54 -51 -20 -27 -21 -41 -24 -401 l-3 -373 -85 -6
c-102 -7 -159 -35 -202 -99 -23 -36 -27 -51 -27 -118 0 -67 4 -82 27 -118 43
-64 100 -92 202 -99 l85 -6 3 -373 c3 -360 4 -374 24 -401 11 -15 36 -38 54
-51 33 -22 35 -22 410 -22 l377 0 5 -95 c6 -116 32 -174 97 -220 39 -27 50
-30 120 -30 68 0 83 3 119 27 22 15 53 48 68 74 23 39 28 61 32 145 l5 99 387
0 c385 0 387 0 420 23 18 12 43 35 54 50 20 27 21 41 24 401 l3 373 85 6 c102
7 159 35 202 99 23 36 27 51 27 118 0 67 -4 82 -27 118 -43 64 -100 92 -202
99 l-85 6 -3 373 c-3 360 -4 374 -24 401 -11 15 -36 38 -54 51 -33 22 -35 22
-420 22 l-387 0 -5 99 c-4 84 -9 106 -32 145 -40 68 -93 100 -175 104 -53 2
-75 -1 -110 -19z m164 -123 c28 -28 37 -70 33 -146 l-3 -55 -95 0 -95 0 -3 45
c-9 119 25 180 98 180 30 0 47 -6 65 -24z m913 -338 c17 -17 17 -1859 0 -1876
-17 -17 -1919 -17 -1936 0 -17 17 -17 1859 0 1876 17 17 1919 17 1936 0z
m-2068 -938 l0 -100 -47 0 c-104 0 -153 32 -153 98 0 70 43 101 143 102 l57 0
0 -100z m2345 86 c39 -17 55 -42 55 -88 0 -66 -49 -98 -152 -98 l-48 0 0 100
0 100 55 0 c31 0 71 -6 90 -14z m-1157 -1216 c7 -115 -24 -170 -95 -170 -50 0
-80 22 -93 68 -11 42 -14 145 -3 156 4 4 48 5 98 4 l90 -3 3 -55z"/>
<path d="M1795 3325 l-25 -24 0 -741 0 -741 25 -24 24 -25 741 0 741 0 24 25
25 24 0 741 0 741 -25 24 -24 25 -741 0 -741 0 -24 -25z m1435 -765 l0 -670
-670 0 -670 0 0 670 0 670 670 0 670 0 0 -670z"/>
<path d="M2405 3174 c-201 -49 -381 -216 -446 -415 -20 -62 -24 -94 -24 -199
0 -105 4 -137 24 -199 60 -182 209 -334 393 -399 97 -33 251 -41 353 -18 207
49 381 206 452 408 34 95 42 251 19 350 -54 230 -234 413 -462 472 -76 20
-227 20 -309 0z m290 -119 c175 -46 329 -207 366 -383 16 -81 7 -223 -21 -295
-46 -123 -174 -251 -297 -297 -72 -28 -214 -37 -295 -21 -91 19 -176 67 -248
140 -105 106 -150 214 -150 361 0 147 45 255 150 360 105 106 207 148 355 149
45 1 107 -6 140 -14z"/>
<path d="M2504 2939 c-307 -39 -436 -428 -214 -649 188 -189 504 -132 619 110
23 48 26 68 26 160 0 93 -3 112 -27 162 -70 151 -234 238 -404 217z m161 -138
c163 -74 208 -279 91 -418 -93 -110 -299 -110 -392 0 -88 104 -86 265 4 361
67 71 207 98 297 57z"/>
<path d="M925 3337 c-77 -44 -107 -145 -65 -227 27 -53 72 -83 135 -88 65 -5
115 17 153 66 23 30 27 45 27 101 0 53 -5 72 -23 99 -50 70 -152 92 -227 49z
m123 -109 c15 -15 15 -61 0 -76 -7 -7 -24 -12 -38 -12 -32 0 -50 17 -50 46 0
44 58 72 88 42z"/>
<path d="M4028 3340 c-60 -32 -83 -74 -83 -151 0 -56 4 -71 27 -101 38 -49 88
-71 153 -66 63 5 108 35 135 88 76 149 -84 308 -232 230z m116 -116 c19 -18
21 -55 4 -72 -7 -7 -24 -12 -38 -12 -14 0 -31 5 -38 12 -7 7 -12 24 -12 38 0
14 5 31 12 38 17 17 54 15 72 -4z"/>
<path d="M950 2093 c-36 -15 -72 -48 -90 -83 -76 -149 81 -306 230 -230 53 27
83 72 88 135 8 103 -55 177 -156 182 -32 1 -64 0 -72 -4z m98 -125 c7 -7 12
-24 12 -38 0 -32 -17 -50 -46 -50 -44 0 -72 58 -42 88 7 7 24 12 38 12 14 0
31 -5 38 -12z"/>
<path d="M4032 2084 c-18 -10 -45 -33 -60 -52 -23 -30 -27 -45 -27 -101 0 -78
24 -120 85 -151 148 -76 306 82 230 230 -11 21 -34 49 -52 61 -42 30 -130 37
-176 13z m121 -125 c5 -9 7 -28 3 -42 -7 -30 -49 -46 -75 -30 -20 13 -26 60
-10 79 16 19 69 14 82 -7z"/>
<path d="M1905 1156 c-124 -56 -127 -244 -5 -306 147 -75 305 83 230 230 -28
56 -72 83 -139 87 -33 2 -69 -2 -86 -11z m115 -127 c26 -47 -25 -100 -69 -72
-20 13 -26 60 -10 79 18 22 66 18 79 -7z"/>
<path d="M3165 1156 c-37 -16 -82 -67 -91 -102 -11 -43 2 -120 25 -153 28 -39
89 -71 136 -71 105 0 191 101 171 202 -21 107 -140 168 -241 124z m115 -127
c26 -47 -25 -100 -69 -72 -20 13 -26 60 -10 79 18 22 66 18 79 -7z"/>
</g>
</svg>
