<?xml version="1.0" standalone="no"?>
<!DOCTYPE svg PUBLIC "-//W3C//DTD SVG 20010904//EN"
 "http://www.w3.org/TR/2001/REC-SVG-20010904/DTD/svg10.dtd">
<svg version="1.0" xmlns="http://www.w3.org/2000/svg"
 width="512.000000pt" height="512.000000pt" viewBox="0 0 512.000000 512.000000"
 preserveAspectRatio="xMidYMid meet">

<g transform="translate(0.000000,512.000000) scale(0.100000,-0.100000)"
fill="#000000" stroke="none">
<path d="M2899 4061 l-29 -29 0 -1472 0 -1472 29 -29 c23 -23 38 -29 71 -29
33 0 48 6 71 29 l29 29 0 1472 0 1472 -29 29 c-23 23 -38 29 -71 29 -33 0 -48
-6 -71 -29z"/>
<path d="M867 3569 c-48 -28 -47 -3 -47 -1009 0 -1011 -1 -982 49 -1010 39
-20 91 -12 122 19 l29 29 0 962 0 962 -29 29 c-23 22 -39 29 -68 29 -21 0 -46
-5 -56 -11z"/>
<path d="M2489 3551 l-29 -29 0 -962 0 -962 29 -29 c41 -41 101 -41 142 0 l29
29 0 962 0 962 -29 29 c-23 23 -38 29 -71 29 -33 0 -48 -6 -71 -29z"/>
<path d="M3309 3551 l-29 -29 0 -962 0 -962 29 -29 c39 -38 97 -40 138 -5 l28
24 0 972 0 972 -28 24 c-41 35 -99 33 -138 -5z"/>
<path d="M4129 3551 l-29 -29 0 -962 0 -962 29 -29 c31 -31 83 -39 122 -19 50
28 49 -1 49 1010 0 1011 1 982 -49 1010 -39 20 -91 12 -122 -19z"/>
<path d="M457 3159 c-46 -27 -47 -35 -47 -599 0 -568 0 -573 49 -600 39 -20
91 -12 122 19 l29 29 0 552 0 552 -29 29 c-23 22 -39 29 -68 29 -21 0 -46 -5
-56 -11z"/>
<path d="M1263 3146 l-28 -24 0 -562 0 -562 28 -24 c41 -35 99 -33 138 5 l29
29 0 552 0 552 -29 29 c-39 38 -97 40 -138 5z"/>
<path d="M2079 3141 l-29 -29 0 -552 0 -552 29 -29 c23 -23 38 -29 71 -29 33
0 48 6 71 29 l29 29 0 552 0 552 -29 29 c-23 23 -38 29 -71 29 -33 0 -48 -6
-71 -29z"/>
<path d="M3719 3141 l-29 -29 0 -552 0 -552 29 -29 c39 -38 97 -40 138 -5 l28
24 0 562 0 562 -28 24 c-41 35 -99 33 -138 -5z"/>
<path d="M4539 3141 l-29 -29 0 -552 0 -552 29 -29 c31 -31 83 -39 122 -19 49
27 49 32 49 600 0 568 0 573 -49 600 -39 20 -91 12 -122 -19z"/>
<path d="M60 2852 c-57 -28 -60 -43 -60 -292 0 -250 3 -264 62 -293 43 -21 77
-15 113 20 l25 26 0 246 c0 237 -1 248 -21 270 -19 20 -58 41 -77 41 -4 0 -23
-8 -42 -18z"/>
<path d="M1713 2863 c-12 -2 -34 -18 -48 -34 l-25 -31 0 -239 0 -239 28 -31
c23 -25 36 -32 71 -33 36 -1 47 4 72 32 l29 32 0 240 0 240 -27 29 c-29 31
-61 42 -100 34z"/>
<path d="M4976 2855 c-55 -29 -55 -30 -56 -296 l0 -246 25 -26 c14 -14 37 -28
51 -31 34 -9 95 21 111 54 15 30 18 455 3 494 -18 49 -88 76 -134 51z"/>
</g>
</svg>
